<?xml version="1.0" encoding="UTF-8"?>
<svg width="12px" height="12px" viewBox="0 0 12 12" version="1.1" xmlns="http://www.w3.org/2000/svg" xmlns:xlink="http://www.w3.org/1999/xlink">
    <title>说明</title>
    <g id="小程序端" stroke="none" stroke-width="1" fill="none" fill-rule="evenodd">
        <g id="02_02-投票活动_深色系（无搜索）" transform="translate(-358.000000, -334.000000)" fill-rule="nonzero">
            <g id="编组-17" transform="translate(350.000000, 330.000000)">
                <g id="说明" transform="translate(8.000000, 4.000000)">
                    <rect id="矩形" fill="#000000" opacity="0" x="0" y="0" width="12" height="12"></rect>
                    <path d="M6,0 C9.3137085,0 12,2.6862915 12,6 C12,9.3137085 9.3137085,12 6,12 C2.6862915,12 0,9.3137085 0,6 C0,2.6862915 2.6862915,0 6,0 Z M6.83640234,4.45980469 L6.77280469,4.45980469 C6.20219531,4.68180469 5.34540234,4.58640234 4.77419531,4.80840234 L4.77419531,4.96740234 C5.59919531,4.96740234 5.37719531,5.475 5.21819531,6.078 C5.028,6.80760937 4.647,7.758 4.58339062,8.42580469 C4.51978125,9.09360937 4.93260938,9.34619531 5.34540234,9.34619531 C5.91659766,9.34619531 6.39240234,8.775 6.64619531,8.45759766 C6.70980469,8.394 7.18619531,7.88640234 6.9,7.82279297 C6.64619531,7.76279297 6.39240234,8.775 5.91659766,8.58480469 C5.88480469,8.58480469 5.88480469,8.58480469 5.853,8.553 C5.97959766,7.125 6.55080469,5.853 6.83640234,4.45980469 L6.83640234,4.45980469 Z M6.58259766,2.36519531 C6.19688069,2.36519531 5.88419531,2.67788069 5.88419531,3.06359766 C5.88419531,3.44931462 6.19688069,3.762 6.58259766,3.762 C6.96831462,3.762 7.281,3.44931462 7.281,3.06359766 C7.2777398,2.67923921 6.9669561,2.36845551 6.58259766,2.36519531 L6.58259766,2.36519531 Z" id="形状" fill="#366BD5"></path>
                </g>
            </g>
        </g>
    </g>
</svg>